<?xml version="1.0" encoding="utf-8"?>
<!-- Generator: Adobe Illustrator 16.0.0, SVG Export Plug-In . SVG Version: 6.00 Build 0)  -->
<!DOCTYPE svg PUBLIC "-//W3C//DTD SVG 1.1//EN" "http://www.w3.org/Graphics/SVG/1.1/DTD/svg11.dtd">
<svg version="1.1" id="Layer_1" xmlns="http://www.w3.org/2000/svg" xmlns:xlink="http://www.w3.org/1999/xlink" x="0px" y="0px"
	 width="480px" height="480px" viewBox="0 0 480 480" enable-background="new 0 0 480 480" xml:space="preserve">
<circle fill="#FFFFFF" stroke="#C4C4C4" stroke-miterlimit="10" cx="240.25" cy="240" r="237.75"/>
<path fill="#C4C4C4" d="M189.142,131.917c-35.278,0-63.885,28.607-63.885,63.885v102.216c0,35.277,28.607,63.885,63.885,63.885
	h102.215c35.277,0,63.886-28.607,63.886-63.885V195.803c0-35.278-28.608-63.885-63.886-63.885H189.142z M316.911,157.472
	c7.054,0,12.777,5.724,12.777,12.777s-5.724,12.777-12.777,12.777c-7.052,0-12.776-5.724-12.776-12.777
	S309.859,157.472,316.911,157.472z M240.249,183.026c35.277,0,63.886,28.607,63.886,63.884s-28.608,63.885-63.886,63.885
	c-35.277,0-63.884-28.607-63.884-63.885S204.972,183.026,240.249,183.026z M240.249,208.58c-21.168,0-38.33,17.162-38.33,38.331
	c0,21.17,17.162,38.331,38.33,38.331c21.171,0,38.332-17.161,38.332-38.331C278.581,225.741,261.42,208.58,240.249,208.58z"/>
</svg>
