<?xml version="1.0" encoding="utf-8"?>
<!-- Generator: Adobe Illustrator 16.0.0, SVG Export Plug-In . SVG Version: 6.00 Build 0)  -->
<!DOCTYPE svg PUBLIC "-//W3C//DTD SVG 1.1//EN" "http://www.w3.org/Graphics/SVG/1.1/DTD/svg11.dtd">
<svg version="1.1" id="Layer_4" xmlns="http://www.w3.org/2000/svg" xmlns:xlink="http://www.w3.org/1999/xlink" x="0px" y="0px"
	 width="933.334px" height="417.777px" viewBox="0 0 933.334 417.777" enable-background="new 0 0 933.334 417.777"
	 xml:space="preserve">
<rect x="426.628" y="183.402" fill="none" width="393.748" height="126.243"/>
<text transform="matrix(1 0 0 1 426.6284 255.1113)" fill="#7FC093" font-family="'FortuneCity'" font-size="103.4759">Graphics.</text>
<path fill="#7FC093" d="M276.361,111.565c-62.334,0-112.881,50.547-112.881,112.882c0,62.335,50.547,112.867,112.881,112.867
	c62.335,0,112.868-50.532,112.868-112.867C389.229,162.112,338.696,111.565,276.361,111.565z M276.361,284.873
	c-33.367,0-60.426-27.06-60.426-60.426c0-33.369,27.059-60.427,60.426-60.427c33.369,0,60.412,27.058,60.412,60.427
	C336.772,257.813,309.729,284.873,276.361,284.873z"/>
<path fill="#7FC093" d="M339.201,224.447c0,34.707-28.13,62.854-62.84,62.854c-34.708,0-62.854-28.147-62.854-62.854
	c0-34.709,28.146-62.855,62.854-62.855C311.07,161.592,339.201,189.738,339.201,224.447z"/>
<circle fill="#7FC093" cx="142.228" cy="111.57" r="29.27"/>
</svg>
