<?xml version="1.0" encoding="utf-8"?>
<!-- Generator: Adobe Illustrator 16.0.0, SVG Export Plug-In . SVG Version: 6.00 Build 0)  -->
<!DOCTYPE svg PUBLIC "-//W3C//DTD SVG 1.1//EN" "http://www.w3.org/Graphics/SVG/1.1/DTD/svg11.dtd">
<svg version="1.1" id="Layer_1" xmlns="http://www.w3.org/2000/svg" xmlns:xlink="http://www.w3.org/1999/xlink" x="0px" y="0px"
	 width="480px" height="480px" viewBox="0 0 480 480" enable-background="new 0 0 480 480" xml:space="preserve">
<circle fill="#FFFFFF" stroke="#C4C4C4" stroke-miterlimit="10" cx="240.25" cy="240" r="237.75"/>
<g>
	<g id="XMLID_1_">
		<path fill="#C4C4C4" d="M336.458,220.979c0,51.927-32.734,93.7-78.169,93.7c-15.259,0-29.616-7.939-34.527-17.293
			c0,0-7.562,28.757-9.385,35.821c-1.454,5.597-3.977,11.811-6.854,17.867c-2.516-4.31-7.216-7.209-12.602-7.209
			c-4.354,0-8.263,1.898-10.929,4.903c-0.135-7.984,0.302-16.179,1.883-22.943c2.742-11.749,17.656-74.884,17.656-74.884
			s-4.504-9.023-4.504-22.355c0-20.955,12.142-36.576,27.251-36.576c12.85,0,19.056,9.656,19.056,21.21
			c0,12.925-8.225,32.252-12.472,50.148c-3.556,15.004,7.516,27.222,22.31,27.222c26.769,0,47.346-28.23,47.346-68.98
			c0-36.063-25.909-61.281-62.922-61.281c-42.858,0-68.016,32.147-68.016,65.378c0,12.94,4.986,26.83,11.208,34.377
			c1.235,1.492,1.4,2.803,1.039,4.324c-1.145,4.76-3.676,14.989-4.173,17.082c-0.647,2.758-2.185,3.345-5.032,2.004
			c-18.814-8.768-30.58-36.274-30.58-58.358c0-47.513,34.528-91.169,99.545-91.169C295.846,133.967,336.458,171.207,336.458,220.979
			z"/>
		<path fill="#C4C4C4" d="M183.993,348.769c2.667-3.005,6.575-4.903,10.929-4.903c5.386,0,10.086,2.899,12.602,7.209
			c-3.849,8.089-8.354,15.916-11.871,21.632c0.022,0.007,0.045,0.016,0.068,0.022c-0.264,0.009-0.535,0.015-0.799,0.015
			c-3.812,0-7.284-1.461-9.883-3.842L183.993,348.769z"/>
		<line fill="none" x1="185.039" y1="368.901" x2="183.993" y2="348.769"/>
	</g>
</g>
</svg>
