<?xml version="1.0" encoding="utf-8"?>
<!-- Generator: Adobe Illustrator 16.0.0, SVG Export Plug-In . SVG Version: 6.00 Build 0)  -->
<!DOCTYPE svg PUBLIC "-//W3C//DTD SVG 1.1//EN" "http://www.w3.org/Graphics/SVG/1.1/DTD/svg11.dtd">
<svg version="1.1" id="Layer_1" xmlns="http://www.w3.org/2000/svg" xmlns:xlink="http://www.w3.org/1999/xlink" x="0px" y="0px"
	 width="900px" height="604.47px" viewBox="0 0 900 604.47" enable-background="new 0 0 900 604.47" xml:space="preserve">
<path fill-rule="evenodd" clip-rule="evenodd" fill="#D9F9E0" d="M311.969,237.378c-13.688-3.056-24.812,0.814-33.112,12.275
	c-0.718,0.991-1.558,2.1-2.805,1.39c-1.84-1.046-1.454-3.306-0.791-4.467c2.962-5.188,3.835-11.223,6.65-16.355
	c4.368-7.965,8.089-16.247,12.96-23.992c6.477-10.3,14.105-19.51,22.125-28.591c6.851-7.756,14.607-14.577,22.458-20.996
	c5.783-4.729,12.549-8.816,19.285-12.61c9.565-5.389,19.457-10.495,29.625-13.972c8.996-3.075,18.536-5.511,28.237-7.144
	c13.43-2.26,26.724-3.66,40.276-3.544c9.284,0.079,18.234,2.447,27.329,3.563c9.634,1.182,18.604,4.329,27.838,6.644
	c5.498,1.378,10.873,3.786,15.858,6.538c6.825,3.769,14.02,6.808,20.575,11.145c8.784,5.811,17.181,12.005,25.092,18.99
	c5.723,5.053,10.864,10.614,15.886,16.252c10.463,11.745,19.287,24.657,26.157,38.901c3.287,6.814,6.697,13.577,9.091,20.738
	c4.025,12.047,7.554,24.199,8.41,37.037c0.538,8.081,2.554,16.057,1.854,24.245c-1.105,0.805-1.902,0.276-2.624-0.597
	c-4.998-10.679-9.258-21.693-14.382-32.317c-8.143-16.886-16.117-33.796-28.667-48.168c-10.344-11.848-24.377-9.28-32.655-1.773
	c-10.17,9.221-17.332,20.502-23.918,32.324c-4.361,7.829-8.732,15.666-13.572,23.217c-1.22,1.904-2.391,4.142-5.258,4.016
	c-2.495-0.544-3.669-2.719-5.31-4.313c-8.229-8.002-17.421-13.662-29.522-13.183c-6.924,0.274-12.959,2.509-18.375,6.669
	c-2.104,1.614-4.012,3.493-6.443,4.652c-3.404,1.053-5.235-1.31-7.152-3.371c-2.938-3.16-5.655-6.468-9.788-8.322
	c-9.258-4.153-17.723-3.087-25.752,3.059c-6.658,5.095-12.445,11.001-17.448,17.703c-1.396,1.87-2.843,3.695-4.865,4.955
	c-7.414,2.634-15.346,4.039-21.37,9.841c-2.627,2.531-5.155,5.083-7.404,7.961c-1.461,1.869-2.782,4.279-5.868,3.759
	c-4.187-3.005-7.77-6.727-11.831-9.892c-10.835-8.445-22.917-12.724-36.793-13.064c-12.688-0.312-24.224,2.877-35.349,8.435
	c-1.182,0.591-2.322,1.429-3.641,0.311c0.69-5.902,1.367-11.807,2.076-17.707c0.379-3.15,2.9-2.188,4.668-2.194
	c18.463-0.065,36.927-0.04,55.39-0.039c6.654,0,13.311-0.131,19.959,0.062c3.102,0.09,4.285-1.086,3.974-4.044
	c14.242,1.41,24.37-5.319,33.498-15.559c6.297-7.064,6.743-15.64,8.982-23.832c0.609-2.229-0.058-4.62-0.893-6.854
	c-0.77-2.062-1.312-4.173,0.309-6.146c2.783-1.57,5.833-0.951,8.777-0.985c7.794-0.091,15.592,0.065,23.385-0.071
	c4.477-0.079,4.955-0.871,3.724-5.11c-3.305-11.382-15.491-17.397-26.006-11.778c-5.951,3.18-11.501,3.377-17.61,2.388
	c-2.371-0.62-3.977-2.367-5.606-3.997c-11.275-11.274-25.702-13.28-39.803-10.011c-14.593,3.383-25.898,14.639-29.635,31.105
	C310.875,226.252,309.461,231.73,311.969,237.378z"/>
<path fill-rule="evenodd" clip-rule="evenodd" fill="#BFF7D1" d="M676.004,357.425c1.612,2.476,3.857,3.149,6.79,3.046
	c6.324-0.224,12.663-0.019,18.994-0.097c3.81-0.048,6.521,2.055,7.898,5.068c1.402,3.068-0.046,6.002-2.435,8.555
	c-1.573,1.68-3.293,1.357-5.034,1.362c-16.164,0.046-32.329,0.088-48.493-0.011c-3.133-0.02-4.858,0.403-4.89,4.247
	c-0.04,4.8-3.852,7.768-9.068,7.783c-13.498,0.038-26.997,0.089-40.494-0.038c-3.147-0.029-4.409,0.776-4.37,4.19
	c0.084,7.552-3.729,10.208-11.254,9.873c-10.075-0.447-20.194-0.217-30.284,0.079c-3.876,0.114-5.752,3.208-6.182,6.75
	c-0.383,3.161,3.841,7.057,7.675,7.112c8.997,0.131,17.997,0.046,26.995,0.05c1.667,0.001,3.334-0.02,5,0.016
	c5.856,0.123,8.088,1.982,8.146,6.754c0.063,5.27-2.552,8.027-8.188,8.201c-5.494,0.168-10.997,0.05-16.496,0.051
	c-11.665,0.003-23.33-0.023-34.995,0.011c-5.957,0.018-8.297,1.959-8.346,6.742c-0.053,5.179,2.203,7.285,8.426,7.124
	c9.466-0.246,18.952,0.836,28.406-0.72c4.113-0.677,8.438,3.357,8.95,7.735c0.39,3.342-4.37,7.926-8.649,7.994
	c-7.83,0.125-15.664,0.036-23.496,0.038c-13.165,0.004-26.33,0.017-39.494,0.005c-2.661-0.003-4.566-0.284-2.62,3.69
	c2.187,4.465-1.69,9.281-7.038,9.342c-10.664,0.119-21.33,0.051-31.996,0.05c-31.495,0-62.991,0.004-94.487-0.015
	c-7.996-0.005-10.521-3.066-8.695-10.626c0.898-3.718-1.99-2.349-3.304-2.364c-10.831-0.125-21.664-0.004-32.495-0.108
	c-6.103-0.06-9.322-2.973-9.579-7.783c-0.221-4.141,1.925-6.088,5.52-7.112c3.736-1.066,7.558-1.082,11.384-0.959
	c3.895,0.125,7.019-0.66,7.182-5.431c0.144-4.206-2.941-7.517-7.377-7.584c-6.831-0.105-13.665-0.028-20.497-0.029
	c-7.166,0-14.332,0.007-21.497-0.005c-1.655-0.003-3.317,0.141-4.891-0.673c-3.418-1.769-6.765-3.945-5.513-8.32
	c1.057-3.694,4.056-5.958,8.198-5.991c5.666-0.045,11.332-0.01,16.998-0.043c5.502-0.032,8.693-2.76,8.575-7.274
	c-0.12-4.583-2.689-6.741-8.141-6.744c-25.83-0.015-51.66-0.036-77.49,0.017c-2.903,0.006-5.537-0.433-8.137-1.84
	c-3.052-1.652-3.815-4.161-3.023-7.137c0.761-2.857,2.305-5.247,5.883-5.026c0.332,0.02,0.667,0.01,1-0.006
	c2.316-0.107,5.378,0.651,6.771-0.539c2.003-1.713-1.954-3.385-1.657-5.437c0.953-6.577-3.307-6.101-7.64-6.055
	c-10.831,0.115-21.664,0.054-32.496,0.043c-6.34-0.006-9.775-2.583-9.895-7.37c-0.105-4.18,4.282-7.625,9.786-7.637
	c8.499-0.019,17.011-0.286,25.492,0.106c4.522,0.209,7.674-0.881,9.432-5.151c1.953,3.479,5.213,3.511,8.653,3.504
	c37.993-0.072,75.987,0.028,113.97-0.086c2.126,0.276,2.295,1.528,1.476,3.16c-3.688,7.342-6.237,15.238-10.781,22.15
	c-0.288,0.676-1.042,1.23-0.515,2.092c8.785-0.28,17.521-0.12,26.255-0.127c1.955-0.002,4.004-0.177,5.566,1.447
	c0.847,1.325,0.941,2.815,0.982,4.322c0.146,5.382-1.171,6.872-6.59,6.965c-8.818,0.15-17.639-0.044-26.436,0.103
	c-0.774,0.124-1.619,0.153-1.945,1.078c1.375,1.324,3.23,2.571,0.713,4.494c-1.479,1.067-3.428,1.972-2.858,4.209
	c0.529,2.08,2.591,2.411,4.367,2.817c3.117,0.711,6.301,0.419,9.46,0.47c3.496,0.057,6.995-0.115,10.488,0.144
	c2.885,0.214,4.646,1.726,5.056,4.596c0.402,2.825-0.713,4.86-3.458,5.888c-0.936,0.351-1.922,0.564-2.828,0.989
	c-1.566,0.735-3.073,1.684-2.806,3.663c0.273,2.019,1.968,2.599,3.721,2.618c14.155,0.157,28.311,0.226,42.465-0.044
	c1.844-0.035,3.896-0.472,3.976-2.893c0.076-2.291-1.854-2.948-3.633-3.488c-2.099-0.637-4.285-0.526-6.448-0.551
	c-5.495-0.063-10.995,0.177-16.485-0.137c-2.985-0.17-5.205-1.466-5.223-4.825c-0.017-3.113,1.812-4.885,4.723-5.597
	c1.794-0.439,3.641-0.35,5.472-0.356c7.328-0.028,14.659,0.126,21.984-0.067c4.704-0.125,9.379-0.623,12.537-4.869
	c4.975-2.175,10.337-0.093,15.38-1.407c1.319-0.559,2.378-1.413,3.024-2.73c0.917-1.661,2.516-2.341,4.137-2.902
	c-3.694-0.454-5.966-2.078-5.573-6.189c0.158-1.655-0.435-3.24-0.978-4.793c-0.168-0.4-0.326-0.806-0.506-1.201
	c-0.424-1.007-1.363-1.739-1.556-2.874c0.154-1.457,0.986-2.536,1.955-3.541c1.194-1.041,2.692-1.078,4.154-1.255
	c1.373-0.166,2.645-0.474,2.555-2.277c-2.299-1.82-5.145-2.607-7.564-4.315c-2.104-1.484-5.251-1.908-7.554,0.677
	c-1.786,3.298-5.214,3.788-9.213,5.061c3.392,1.367,6.644,1.511,8.65,3.982c0.703,0.967,0.958,1.991,0.438,3.128
	c-1.598,2.425-2.438,5.128-2.574,7.979c-0.19,4.028-2.392,5.581-6.158,5.507c-13.148-0.256-26.303,0.289-39.447-0.324
	c-5.59-2.229-5.91-3.396-2.081-7.543c4.355-3.442,8.548-7.138,13.692-9.449c4.382-2.36,8.288-5.533,12.806-7.65
	c2.733-1.28,3.23-3.038,1.716-5.573c-1.191-1.993-2.413-3.97-3.553-5.991c-0.868-1.539-1.472-3.144,0.951-3.973
	c5.65-0.9,11.324-0.384,16.99-0.405c23.01-0.269,46.016-0.268,69.021-0.018c1.287-0.017,2.574-0.034,3.86,0.003
	c14.692-0.193,29.386-0.234,44.078,0.012c1.243-0.19,2.485-0.022,3.726,0.002c5.057,0.117,10.153-0.679,15.154,0.619
	c0.582,0.314,1.396,0.835,1.212,1.395c-1.989,6.078,2.264,5.094,5.685,5.147c1.474,0.023,2.986,0.088,4.131,1.275
	c0.336,0.797,0.281,1.556-0.197,2.28c-3.396,2.219-7.449,0.301-10.959,1.749c-0.708,0.614-1.926,0.64-2.141,1.844
	c9.412,2.762,9.412,2.762,6.843,7.508c5.505,0.581,10.852,0.323,16.198-0.023c-1.925-0.685-3.848,0.146-5.779-0.063
	c-2.3-0.249-5.047-0.059-5.006-3.403c0.037-3.021,2.585-2.965,4.73-3.141c3.257-0.266,6.58,0.36,10.006-0.58
	c-0.453-1.81-1.314-2.778-3.066-2.8c-2.945-0.091-5.958,0.571-8.76-0.874c-0.987-0.827-1.084-1.925-0.951-3.096
	c2.002-5.767,8-5.499,12.151-8.047c25.977,0.257,51.95-0.157,77.92,0.195c0.909,0.033,1.821,0.039,2.73,0.032
	c5.602-0.143,11.208-0.079,16.813-0.031C670.67,358.953,673.395,358.575,676.004,357.425z"/>
<path fill-rule="evenodd" clip-rule="evenodd" fill="#69DCB8" d="M343.066,359.538c-1.868,0.878-3.856,0.879-5.865,0.878
	c-37.97-0.018-75.94-0.115-113.909,0.102c-4.501,0.025-5.405-1.349-4.424-5.183c10.67-24.306,25.137-45.567,48.11-60.011
	c6.736-3.503,13.687-6.321,21.094-8.247c12.264-3.188,24.556-2.825,36.293,0.94c12.102,3.883,22.3,11.463,30.717,21.17
	c6.382,2.499,7.848,7.515,7.03,13.705c-0.773,3.177-2.513,5.91-4.04,8.74c-0.927,1.618-1.188,3.526-2.169,5.125
	c-0.992,2.591-3.02,4.615-3.937,7.25C349.465,349.451,348.02,355.502,343.066,359.538z"/>
<path fill-rule="evenodd" clip-rule="evenodd" fill="#69DCB8" d="M546.97,360.372c-5.352-0.048-10.702-0.095-16.054-0.143
	c-2.166-3.567-1.261-7.399-0.878-11.155c0.167-1.645,1.463-2.583,2.924-3.129c7.454-2.785,12.247-7.763,13.33-15.897
	c0.131-0.981,0.628-1.891,1.302-2.661c1.479-1.091,2.923-0.489,4.163,0.332c5.717,3.789,11.164,1.89,16.478-0.807
	c6.134-3.112,11.045-7.923,16.212-12.333c9.399-8.022,19.55-14.299,32.298-15.191c5.692-0.398,11.256-0.382,16.194,3.071
	c0.676,0.322,1.353,0.644,2.028,0.966c2.025,1.712,4.354,2.869,6.839,3.742c1.101,0.942,0.8,2.09,0.405,3.197
	c-2.519,7.093-3.422,14.507-4.432,21.904c-1.066,7.812,1.411,12.618,8.432,16.224c4.527,2.325,5.371,5.784,2.865,11.75
	c-25.428,0.049-50.856,0.11-76.284,0.111c-1.285,0-2.57-0.524-3.856-0.804c-1.613,0.172-2.429-0.908-3.025-2.104
	c-2.327-4.66-6.073-8.467-7.289-12.211c0.402,6.267,2.66,13.631,0.433,21.222c-0.017,0.938-0.034,1.876-0.051,2.814
	c-0.71,0.631-1.399,0.64-2.063-0.071c-0.071-0.614-0.142-1.229-0.213-1.843c-2.111-4.91-0.652-10.072-1.035-15.104
	c-0.161-2.112-0.043-4.248,0.007-6.253C552.218,350.365,552.061,356.854,546.97,360.372z"/>
<path fill-rule="evenodd" clip-rule="evenodd" fill="#FEDC8A" d="M345.006,261.39c-2.856-1.303-5.719-2.506-8.996-2.016
	c-2.338,0.351-4.024-1.144-4.728-2.91c-2.318-5.821-6.53-10.245-10.343-14.98c-2.791-3-3.731-6.623-3.31-10.582
	c1.415-13.282,6.966-24.324,18.999-30.781c11.974-6.425,24.089-5.988,35.925,1.28c3.757,2.308,4.094,5.227,3.555,8.866
	c-0.094,0.513-0.258,1.012-0.463,1.489c-2.298,5.446-1.811,6.241,3.867,6.335c1.948,0.032,3.904-0.133,5.85,0.197
	c0.807,0.188,1.524,0.528,2.088,1.155c1.169,8.856,2.363,17.541-1.903,26.197c-6.042,12.258-15.4,18.881-29.046,19.713
	C351.999,265.627,348.698,263.103,345.006,261.39z"/>
<path fill-rule="evenodd" clip-rule="evenodd" fill="#32C498" d="M649.076,360.242c-0.027-1.33-0.225-2.682-0.05-3.984
	c0.517-3.848-0.725-5.82-4.773-7.105c-5.896-1.872-9.317-9.709-8.111-16.569c1.503-8.557,2.275-17.278,5.664-25.415
	c1.125-3.461,2.057-6.989,4.319-9.977c2.8-3.698,5.041-3.828,7.882-0.149c3.656,4.735,4.875,10.515,6.402,16.097
	c1.178,4.305,1.818,8.757,2.698,13.143c0.428,3.269,0.817,6.538,1.707,9.732c1.386,4.97-0.396,9.177-4.445,11.721
	c-4.317,2.713-7.606,5.691-8.273,10.953c-0.081,0.64-0.703,1.106-1.158,1.591C650.317,360.266,649.696,360.254,649.076,360.242z"/>
<path fill-rule="evenodd" clip-rule="evenodd" fill="#ECEBB3" d="M375.007,211.397c0.009-7.265-2.62-9.762-10.034-12.229
	c-3.892-1.295-7.614-1.629-11.554-1.827c-13.36-0.673-23.214,6.318-29.341,16.679c-4.66,7.879-7.78,17.68-3.138,27.462
	c-2.99-1.367-5.98-2.736-8.971-4.104c-3.691-2.467-3.509-6.38-2.839-9.812c2.566-13.145,7.466-24.362,19.083-33.132
	c11.167-8.431,22.932-7.621,34.807-6.636c7.533,0.626,14.207,5.533,19.872,10.979c1.311,1.26,2.719,2.419,4.082,3.624
	c0.216,0.725-0.021,1.375-0.704,1.555c-3.484,0.913-5.925,3.134-7.984,5.967C377.543,210.946,376.552,211.921,375.007,211.397z"/>
<path fill-rule="evenodd" clip-rule="evenodd" fill="#EDEBB4" d="M345.006,261.39c2.417-0.689,3.874,1.621,5.916,1.929
	c8.562,1.287,16.574,0.203,23.412-5.729c2.692-2.335,7.11-5.159,7.61-7.062c1.221-4.651,5.269-8.064,5.096-13.146
	c-0.203-5.984-0.053-11.98-0.056-17.972c2.673-1.992,5.354-1.973,8.043-0.03c-1.064,3.529,2.537,6.192,1.909,9.526
	c-1.764,9.376-1.854,18.813-8.858,27.129c-5.234,6.214-11.095,11.35-17.869,14.408c-4.76,2.149-11.221,6.036-17.164,0.957
	C352.475,266.371,348.136,264.366,345.006,261.39z"/>
<path fill-rule="evenodd" clip-rule="evenodd" fill="#C0F7D1" d="M255.5,445.376c6.661,0.001,13.323,0.063,19.983-0.021
	c4.248-0.054,6.063,2.458,6.36,6.145c0.267,3.3-3.578,7.013-6.804,6.641c-13.278-1.531-26.59-0.346-39.881-0.619
	c-4.449-0.091-6.322-1.793-6.256-6.286c0.063-4.283,1.938-5.976,6.115-5.896C241.843,445.471,248.673,445.375,255.5,445.376z"/>
<path fill-rule="evenodd" clip-rule="evenodd" fill="#C1F7CF" d="M635.217,427.386c7.995-0.002,15.989,0.05,23.983-0.025
	c3.563-0.034,5.809,1.128,5.769,5.096c-0.041,3.985-2.408,5.021-5.901,5.01c-13.823-0.047-27.647-0.035-41.472,0.001
	c-2.149,0.005-4.299,0.231-6.446,0.39c-3.559,0.262-5.792-1.245-6.123-4.879c-0.334-3.671,1.354-5.627,5.208-5.604
	C618.562,427.422,626.89,427.388,635.217,427.386z"/>
<path fill-rule="evenodd" clip-rule="evenodd" fill="#6BDBB9" d="M650.938,360.278c0.249-5.747,1.387-10.529,7.857-12.976
	c4.709-1.78,6.265-7.25,4.871-13.189c-0.617-2.629-0.792-5.19-0.56-7.831c1.854,11.394,9.213,20.507,12.897,31.143
	c0.203,2.463-1.134,3.033-3.33,2.998C665.43,360.306,658.184,360.316,650.938,360.278z"/>
<path fill-rule="evenodd" clip-rule="evenodd" fill="#9EF4DB" d="M632.938,302.459c-13.018-3.826-25.524-2.162-36.771,5.064
	c-7.772,4.992-14.657,11.371-21.911,17.165c-4.1,3.274-8.768,5.157-13.829,6.47c-5.062,1.313-8.326-2.574-12.536-3.631
	c-2.32-0.422-1.994-2.376-2.134-3.917c-1.161-12.82-4.464-25.164-8.588-37.278c-1.345-3.949-2.448-9.146-7.395-9.806
	c-4.919-0.656-5.661,4.751-7.972,7.763c-0.408,0.533-0.873,0.996-1.426,1.377c-4.323,0.157-5.688-2.707-6.382-6.256
	c4.751-2.392,6.415-7.359,8.766-11.442c10.409-18.075,18.893-37.515,36.028-50.709c7.23-5.567,19.611-7.247,28.157,1.009
	c7.815,7.551,13.479,16.532,19.031,25.757c7.74,12.858,13.05,26.861,19.823,40.168C628.752,289.99,630.593,296.353,632.938,302.459z
	"/>
<path fill-rule="evenodd" clip-rule="evenodd" fill="#69DCB8" d="M513.995,279.41c1.878,2.123,3.152,4.851,6.008,5.993
	c1.303,1.771,0.452,3.552-0.149,5.21c-3.931,10.846-5.51,22.195-7.175,33.511c-1.438,9.771,1.588,16.617,10.078,20.636
	c4.649,2.2,6.091,5.071,5.652,9.676c-0.187,1.957,0.521,3.978-0.403,5.888c-15.029-0.028-30.059-0.057-45.086-0.084
	c-2.16-3.571-1.277-7.403-0.867-11.159c0.205-1.871,1.822-2.614,3.358-3.368c10.896-5.35,13.267-9.851,12.424-21.583
	c-0.951-13.253-4.795-25.781-8.835-38.285c-0.768-2.374-1.884-4.647-3.355-6.675c-2.824-3.894-6.238-3.877-8.68,0.318
	c-4.047,6.955-6.87,14.544-8.258,22.386c-1.301,7.355-3.158,14.605-4.011,22.071c-1.209,10.591,2.182,17.352,12.021,21.36
	c3.258,1.328,5.01,3.237,4.393,6.763c-0.477,2.731,0.965,5.706-1.064,8.224c-23.335,0.007-46.669,0.013-70.004,0.02
	c-1.715-3.763,0.261-7.209,1.411-10.448c4.531-12.769,8.838-25.649,15.209-37.681c5.753-11.958,12.167-23.497,20.825-33.682
	c1.867-2.197,3.862-3.994,6.467-5.148c17.782-18.28,40.187-14.867,56.581,2.538C511.662,277.087,512.84,278.237,513.995,279.41z"/>
<path fill-rule="evenodd" clip-rule="evenodd" fill="#83E9CA" d="M427.971,312.366c-7.392,15.452-13.837,31.26-17.93,47.945
	c-6.009,0.021-12.019,0.043-18.028,0.064c-1.95-0.56-2.866-2.268-3.829-3.756c-7.583-11.718-14.891-23.609-22.196-35.502
	c-0.506-0.787-0.66-1.8-1.551-2.385c-1.155,1.542-0.152,4.708-3.449,4.624c1.23-6.056-1.585-10.425-5.904-14.168
	c5.111-3.287,7.624-9.028,12.332-12.805c6.422-5.151,13.696-7.715,21.622-8.97c2.865-2.065,5.73-0.946,8.545,0.073
	c8.115,2.938,15.092,7.563,20.862,14.031C421.647,305.111,424.885,308.671,427.971,312.366z"/>
<path fill-rule="evenodd" clip-rule="evenodd" fill="#9EF4DB" d="M427.971,312.366c-3.644-0.426-4.842-3.767-6.821-6.01
	c-6.045-6.852-12.416-13.109-21.159-16.553c-3.58-1.41-7.045-2.76-10.955-2.389c7.659-9.946,15.279-19.922,26.623-26.127
	c8.931-4.885,20.532-3.413,27.849,3.683c1.774,1.721,3.348,3.646,5.051,5.441c1.473,1.553,2.841,3.348,5.394,2.939
	C442.692,284.625,434.659,298.048,427.971,312.366z"/>
<path fill-rule="evenodd" clip-rule="evenodd" fill="#FCFDFD" d="M395.027,219.381c-2.681,0.01-5.362,0.021-8.043,0.03
	c-0.643-0.028-1.286-0.058-1.929-0.087c-1.547-0.813-3.217-0.409-4.827-0.425c-6.642-0.066-7.333-1.029-5.222-7.499v-0.003
	c0.848-0.747,1.984-1.337,2.492-2.27c2.086-3.826,5.414-5.76,9.477-6.726c2.96,0.149,5.958-0.415,8.866,0.739
	c1.524,0.604,2.793-0.155,4.077-1.135c13.842-10.564,30.604-1.808,33.49,14.167c0.681,3.771-2.016,3.164-4.001,3.176
	C417.947,219.419,406.487,219.382,395.027,219.381z"/>
<path fill-rule="evenodd" clip-rule="evenodd" fill="#F9FCFB" d="M463.983,248.395c-1.487,0-2.974-0.024-4.46,0.005
	c-2.344,0.047-5.148,0.302-5.92-2.378c-0.686-2.382,1.525-4.233,3.152-5.703c4.519-4.079,14.379-1.76,17.12,3.689
	c1.28,2.547,0.455,3.885-1.981,4.167c-2.605,0.301-5.271,0.067-7.91,0.067C463.984,248.293,463.984,248.344,463.983,248.395z"/>
<path fill-rule="evenodd" clip-rule="evenodd" fill="#BDEDC6" d="M506.213,202.331c3.061,1.417,6.232,0.932,9.009-2.3
	c1.093-1.272,3.146-0.743,4.762-0.435c1.021,0.194,1.756,0.95,1.783,2.092c0.032,1.319-0.95,1.82-1.964,1.633
	c-3.582-0.662-4.89,1.411-6.003,4.301c-0.876,2.273-2.53,3.087-4.375,0.68c-1.437-1.874-3.092-2.644-5.56-2.016
	c-1.215,0.31-3.43,0.785-3.576-1.383c-0.122-1.786,1.819-2.08,3.252-2.421C504.174,202.332,504.858,202.397,506.213,202.331z"/>
<path fill-rule="evenodd" clip-rule="evenodd" fill="#BCECC7" d="M408.231,170.609c3.512,1.768,6.605,0.481,9.633-1.576
	c1.292-0.878,2.868-0.878,4.322-0.368c0.549,0.192,1.227,0.791,1.335,1.311c0.221,1.064-0.668,1.41-1.553,1.379
	c-3.58-0.126-4.933,2.352-5.819,5.136c-1.097,3.451-2.333,2.993-4.152,0.513c-1.316-1.794-2.983-3.191-5.519-2.296
	c-1.416,0.5-3.042,1.313-3.358-1.155c-0.238-1.859,1.204-2.053,2.577-2.271C406.505,171.153,407.288,170.865,408.231,170.609z"/>
<path fill-rule="evenodd" clip-rule="evenodd" fill="#32C498" d="M528.006,360.323c-0.211-0.452-0.681-0.962-0.595-1.347
	c1.907-8.503-3.659-11.988-9.716-15.945c-6.911-4.515-7.635-12.027-6.488-19.576c1.96-12.899,4.277-25.735,8.796-38.052
	c1.208-2.365,2.192-4.88,3.667-7.066c3.711-5.508,8.166-5.262,11.495,0.539c4.009,6.985,5.846,14.739,7.903,22.429
	c2.306,8.62,3.438,17.44,4.823,26.222c-0.388,9.813-4.959,16.58-14.49,19.563c-2.034,0.637-2.458,1.809-2.421,3.672
	c0.063,3.155-0.034,6.313-0.064,9.47C529.945,360.261,528.976,360.292,528.006,360.323z"/>
<path fill-rule="evenodd" clip-rule="evenodd" fill="#32C498" d="M480.045,360.291c0.078-3.116-1.011-6.182-0.159-9.358
	c0.554-2.068-0.548-3.159-2.634-3.987c-12.144-4.817-15.553-11.614-13.564-24.479c1.72-11.123,3.305-22.233,7.291-32.826
	c1.4-3.718,2.711-7.52,4.594-10.995c3.075-5.674,8.273-5.583,11.543,0.054c4.641,8.002,6.393,17.003,8.828,25.784
	c2.185,7.873,3.078,15.921,3.945,23.98c0.68,6.308-4.699,15.511-11.191,17.335c-5.315,1.493-6.283,4.319-5.73,8.949
	c0.216,1.804-0.018,3.66-0.047,5.492C481.961,360.257,481.003,360.274,480.045,360.291z"/>
<path fill-rule="evenodd" clip-rule="evenodd" fill="#9AF1B5" d="M410.957,407.461c-1.381,6.894-7.428,5.396-11.658,5.717
	c-8.615,0.656-17.314,0.191-25.979,0.202c-1.815,0.002-3.664-0.207-5.123,1.35c-1.302,1.39-1.433,2.983-0.977,4.647
	c0.488,1.784,2.004,2.028,3.582,2.029c6.499,0.004,12.998,0.074,19.495-0.029c2.388-0.038,4.657,0.328,6.82,1.208
	c2.306,0.938,3.253,2.826,2.788,5.248c-0.429,2.233-1.92,3.519-4.203,3.523c-15.329,0.037-30.659,0.013-45.988,0.034
	c-2.738,0.004-3.865-2.038-4.407-4.021c-0.59-2.161,1.263-3.718,2.896-4.763c1.194-0.764,2.814-1.024,4.277-1.167
	c2.602-0.254,3.556-1.889,3.24-4.067c-0.302-2.082-0.89-4.166-3.985-4.039c-5.156,0.213-10.329,0.03-15.494,0.063
	c-2.174,0.013-4.262-0.307-6.397-0.772c-2.733-0.598-4.979-1.539-4.762-4.669c0.24-3.449,2.579-4.748,5.874-4.535
	c0.646-0.612,1.382-0.65,2.177-0.35c1.244,1.021,2.387,2.19,4.008,2.652c16.612,0.631,33.212,0.095,49.809,0.252
	c6.143,0.059,12.288-0.032,18.431,0.036C407.334,406.032,409.426,405.727,410.957,407.461z"/>
<path fill-rule="evenodd" clip-rule="evenodd" fill="#E9FCFE" d="M366.922,320.434c8.363,13.314,16.727,26.629,25.09,39.942
	c2.004,3.358,4.005,6.72,6.012,10.076c1.074,1.796,1.257,3.22-0.998,4.429c-5.068,2.715-10.033,5.626-15.039,8.457
	c-3.579,0.289-4.894-2.435-6.111-4.913c-5.31-10.811-8.326-22.307-10.269-34.165c-0.905-5.522-2.075-10.995-2.495-16.591
	c-0.164-0.548-0.26-1.104-0.32-1.67C363.292,323.496,362.083,319.712,366.922,320.434z"/>
<path fill-rule="evenodd" clip-rule="evenodd" fill="#C8F5FA" d="M366.922,320.434c-4.121,0.514-2.451,3.87-3.011,6.133
	c-0.163,7.078,0.599,14.135,0.509,21.215c0.009,10.836-0.057,21.669,0.038,32.502c0.019,2.15,0.284,4.369-1.255,6.213
	c-11.066,0.396-22.137,1.1-33.184-0.362c0.021-0.746,0.213-1.396,0.962-1.739c3.114-0.783,6.292-0.454,9.419-0.323
	c3.404,0.143,5.032-0.996,5.765-4.511c2.368-11.349,5.815-22.443,8.032-33.849c0.929-4.777,3.706-9.193,2.732-14.352
	c1.353-2.667,2.705-5.335,4.057-8.003c2.48-1.828,1.905-4.676,2.156-7.347C365.692,316.658,366.105,318.714,366.922,320.434z"/>
<path fill-rule="evenodd" clip-rule="evenodd" fill="#FBFDFC" d="M482.601,400.45c5.34,0,9.513-0.176,13.665,0.04
	c6.756,0.351,10.127,6.83,6.568,12.228c-1.345,2.039-3.107,2.728-5.48,2.711c-9.991-0.069-19.983-0.031-29.975-0.023
	c-3.744,0.003-5.946-1.838-6.383-5.542c-0.472-3.993,0.421-7.243,4.906-8.51C471.807,399.685,477.826,400.872,482.601,400.45z"/>
<path fill-rule="evenodd" clip-rule="evenodd" fill="#E8FCFC" d="M356.93,331.36c4.214,2.67,1.355,6.813,0.55,9.009
	c-2.897,7.905-4.09,16.176-6.179,24.223c-1.605,6.186-3.952,12.258-4.371,18.74c-0.073,1.131-0.681,1.993-1.828,1.928
	c-4.708-0.269-9.524,1.164-14.121-0.865c4.028-8.286,8.056-16.572,12.085-24.857c2.688-5.384,5.375-10.768,8.062-16.152
	c1.489-2.226,3.819-3.989,3.857-7.013C356.426,335.01,355.267,332.638,356.93,331.36z"/>
<path fill-rule="evenodd" clip-rule="evenodd" fill="#C7F5FB" d="M363.961,327.425c0.327,0.55,0.943,1.104,0.935,1.649
	c-0.112,7.469,3.123,14.438,3.677,21.613c0.73,9.452,4.983,17.383,7.937,25.915c1.046,3.022,2.884,5.116,5.479,6.735
	c-4.315,3.011-8.631,6.022-12.947,9.033c-4.339,1.573-4.395-1.709-4.434-4.266c-0.104-6.786-0.776-13.546-0.647-20.345
	c0.129-6.778,0.325-13.574-0.443-20.34C363.773,340.758,362.983,334.071,363.961,327.425z"/>
<path fill-rule="evenodd" clip-rule="evenodd" fill="#F8FDFA" d="M291.468,375.391c3.819-0.002,7.667,0.289,11.45-0.079
	c4.316-0.42,4.729,2.728,4.741,5.292c0.013,2.755-0.149,6.534-4.277,6.646c-8.461,0.229-16.942,0.321-25.396-0.003
	c-4.53-0.173-3.075-4.603-3.446-7.104c-0.296-1.995,0.078-5.084,3.981-4.816C282.818,375.62,287.151,375.394,291.468,375.391z"/>
<path fill-rule="evenodd" clip-rule="evenodd" fill="#2197AE" d="M425.433,385.243c1.006,0.324,1.669,0.929,1.685,2.063
	c-1.391,1.533-3.289,1.356-5.081,1.462c-2.059,0.121-3.569,0.787-3.545,3.179c0.015,1.46,0.508,2.651,2.138,2.854
	c2.12,0.262,4.024-0.072,4.757-2.48c0.517-1.701,0.152-3.694,1.701-5.049c1.425,1.18,1.635,2.998,1.655,4.517
	c0.055,4.184,0.271,7.439,6.096,6.641c2.632-0.36-0.035,1.298,0.095,2.019c-12.115,3.676-24.429,1.751-36.722,1.524
	c-18.109-0.332-36.228-0.074-54.342-0.094c-4.961-0.006-9.949,0.375-14.824-1.03c-0.866-0.25-1.479-0.667-1.965-1.367
	c0.063-1.31,1.044-1.171,1.912-1.212c13.399-0.434,26.799-0.842,40.197,0.028c13.422-0.024,26.844-0.146,40.264-0.006
	c3.26,0.034,4.689-0.601,4.78-4.249c0.078-3.132-0.015-6.793,3.479-8.773C420.28,383.411,422.854,383.507,425.433,385.243z"/>
<path fill-rule="evenodd" clip-rule="evenodd" fill="#1597A2" d="M335.073,406.45c-0.958-0.771-2.224-1.348-1.884-2.948
	c1.65-1.885,3.899-1.583,6.025-1.586c19.909-0.027,39.824-0.329,59.722,0.131c8.763,0.203,17.529-0.131,26.282,0.357
	c1.621,0.091,3.374-0.301,4.632,1.199c0.569,1.871-1.587,1.632-2.078,2.682c-0.99,0.897-2.21,0.581-3.343,0.582
	c-28.812,0.016-57.624,0.014-86.437,0.008C337.004,406.875,335.985,407.013,335.073,406.45z"/>
<path fill-rule="evenodd" clip-rule="evenodd" fill="#83E7F2" d="M429.851,403.604c-32.221-0.034-64.442-0.068-96.662-0.103
	c-0.744-0.027-1.488-0.055-2.233-0.082c0.254-2.835-4.153-1.084-3.876-3.939c2.082,1.381,4.436,1.148,6.752,1.147
	c21.113-0.011,42.229-0.2,63.339,0.038c12.594,0.143,25.181,0.892,37.763-0.22C433.69,402.225,430.516,400.894,429.851,403.604z"/>
<path fill-rule="evenodd" clip-rule="evenodd" fill="#9CEFB8" d="M568.859,369.479c0.329,0.017,0.659,0.033,0.988,0.05
	c-0.164,2.669,5.393,0.888,3.649,4.387c-1.278,2.565-4.192,1.279-6.403,1.443c-2.151,0.16-4.325-0.014-6.486,0.052
	c-1.409,0.043-3.328-0.421-3.405,1.832c-0.091,2.655,2.095,2.153,3.616,2.089c2.298-0.098,4.577-0.629,6.875-0.716
	c1.1-0.042,2.362,0.407,2.714,1.718c0.212,0.792-0.603,1.273-1.181,1.355c-7.274,1.038-14.53,1.469-21.752-0.346
	c0.311-2.284,1.635-1.756,2.445-2.104c0.973-0.418,1.862-0.926,1.63-2.138c-0.216-1.13-1.165-1.571-2.217-1.629
	c-1.494-0.081-2.998,0.003-4.489-0.098c-1.391-0.094-3.242,0.545-3.681-1.57c-0.457-2.205,1.295-2.267,2.765-2.608
	c0.429-0.101,0.768-0.591,1.147-0.902c7.354,1.955,14.715,2.999,22.11,0.178C567.809,370.235,568.366,369.919,568.859,369.479z"/>
<path fill-rule="evenodd" clip-rule="evenodd" fill="#E4FAF9" d="M546.97,360.372c2.928-6.068,5.856-12.138,8.785-18.207
	c0.324,0.021,0.649,0.041,0.975,0.062c0,8.376,0,16.752-0.001,25.129c-1.154,0.021-2.309,0.067-3.462,0.054
	c-2.632-0.032-6.009,0.908-7.726-0.37C542.741,364.955,547.939,363.019,546.97,360.372z"/>
<path fill-rule="evenodd" clip-rule="evenodd" fill="#F4C66B" d="M434.945,377.458c0.579,2.936-0.595,4.178-3.604,4.054
	c-1.53-0.063-3.292-0.47-4.49,1.093c-3.297,1.752-6.758,1.294-10.225,0.761c-2.269-0.841-4.319-2.313-6.969-2.01
	c-1.128,0.129-2.367-0.195-2.483-1.772c-0.137-1.853,1.115-2.138,2.535-2.249c3.01-0.236,5.927-0.653,7.288-3.941
	c3.765-1.805,7.473-1.729,10.301,1.467C429.506,377.354,432.859,375.323,434.945,377.458z"/>
<path fill-rule="evenodd" clip-rule="evenodd" fill="#40C5DE" d="M369.189,398.296c-13.399-0.009-26.799-0.019-40.198-0.028
	c7.996-1.564,16.074-0.275,24.103-0.691c1.152-0.061,2.328-0.14,3.462,0.018c4.711,0.652,7.346-0.697,6.305-6.059
	c-0.248-1.276-0.078-2.633-0.1-3.952c-0.313-0.46-0.343-0.938-0.089-1.433c0.084-12.919,0.168-25.838,0.251-38.757
	c0.354-0.429,0.756-0.479,1.206-0.151c0.627,13.606,1.239,27.215,1.897,40.82c0.097,2.002-0.636,4.729,3.014,4.309
	C365.998,394.424,364.662,396.434,369.189,398.296z"/>
<path fill-rule="evenodd" clip-rule="evenodd" fill="#F8FBFA" d="M505.265,443.426c-4.905-0.087-6.425-1.71-6.259-6.688
	c0.129-3.861,2.773-6.374,6.642-6.308c3.667,0.063,7.403,3.47,7.3,6.657C512.819,441.015,509.801,443.506,505.265,443.426z"/>
<path fill-rule="evenodd" clip-rule="evenodd" fill="#DCF9FA" d="M559.054,366.456c-0.364-7.595-1.417-15.162-0.954-23.185
	c4.363,5.178,7.244,10.97,10.837,16.277c-0.424,2.556-2.688,2.599-4.472,3.113C562.182,363.321,560.295,364.386,559.054,366.456z"/>
<path fill-rule="evenodd" clip-rule="evenodd" fill="#7CF6EE" d="M335.073,406.45c30.901-0.056,61.803-0.111,92.702-0.166
	c-5.468,2.384-11.241,0.372-16.817,1.177c-23.574-0.017-47.148-0.018-70.722-0.079C338.498,407.377,336.547,408.093,335.073,406.45z
	"/>
<path fill-rule="evenodd" clip-rule="evenodd" fill="#1CA0B2" d="M568.859,369.479c-0.333,2.504-2.665,3.376-4.294,3.473
	c-6.622,0.395-13.578,2.363-19.491-2.657c3.815-1.884,7.969-0.101,11.865-1.095c0.688,0.023,1.377,0.047,2.064,0.071
	C562.288,369.34,565.574,369.41,568.859,369.479z"/>
<path fill-rule="evenodd" clip-rule="evenodd" fill="#D8E5A5" d="M434.945,377.458c-3.744-0.058-7.384,0.333-10.34-3.208
	c-1.75-2.096-5.035-0.546-7.607-0.857c0.951-3.456,3.828-2.001,5.753-1.894C427.542,371.767,431.034,375.13,434.945,377.458z"/>
<path fill-rule="evenodd" clip-rule="evenodd" fill="#69C1C0" d="M362.672,386.15c0.031,0.478,0.061,0.955,0.09,1.433
	c-10.697-0.068-21.393-0.128-32.087-0.225c-0.564-0.006-1.335,0.417-1.69-0.45c-0.034-0.083,0.063-0.284,0.154-0.34
	c0.279-0.167,0.584-0.29,0.879-0.433C340.903,386.14,351.788,386.146,362.672,386.15z"/>
<path fill-rule="evenodd" clip-rule="evenodd" fill="#816037" d="M416.627,383.365c3.287-1.889,6.808-0.635,10.225-0.762
	c-0.474,0.881-0.948,1.761-1.421,2.641c-2.571,0.008-5.145,0.016-7.718,0.023C417.351,384.634,416.989,383.999,416.627,383.365z"/>
<path fill-rule="evenodd" clip-rule="evenodd" fill="#C8F5FA" d="M354.985,336.372c0.759,3.464-1.022,5.528-3.858,7.013
	C351.641,340.622,353.795,338.763,354.985,336.372z"/>
<path fill-rule="evenodd" clip-rule="evenodd" fill="#EDEBB4" d="M375.007,211.4c-0.029,6.711-0.029,6.717,6.824,6.993
	c1.16,0.047,2.344-0.055,3.224,0.932c-2.275,0.034-4.561,0.215-6.823,0.057c-1.774-0.124-4.385,1.084-5.016-1.542
	C372.687,215.629,372.093,212.885,375.007,211.4z"/>
<path fill-rule="evenodd" clip-rule="evenodd" fill="#72C4C3" d="M364.129,347.242c-0.401,0.05-0.803,0.101-1.205,0.151
	c0.353-6.942-1.058-13.969,0.987-20.829c-0.034,0.29-0.017,0.576,0.05,0.86C364.017,334.03,364.073,340.636,364.129,347.242z"/>
<path fill-rule="evenodd" clip-rule="evenodd" fill="#039FC9" d="M427.088,387.271c-0.034,1.323-0.124,2.647-0.09,3.969
	c0.052,2.056,0.115,4.183-2.444,4.748c-2.377,0.524-5.297,1.46-6.99-0.572c-1.415-1.697-0.774-4.467-0.288-6.722
	c0.311-1.438,1.761-1.256,2.89-1.287c2.316-0.064,4.634-0.07,6.952-0.1C427.118,387.306,427.088,387.271,427.088,387.271z"/>
</svg>
