<?xml version="1.0" encoding="utf-8"?>
<!-- Generator: Adobe Illustrator 16.0.0, SVG Export Plug-In . SVG Version: 6.00 Build 0)  -->
<!DOCTYPE svg PUBLIC "-//W3C//DTD SVG 1.1//EN" "http://www.w3.org/Graphics/SVG/1.1/DTD/svg11.dtd">
<svg version="1.1" id="Layer_1" xmlns="http://www.w3.org/2000/svg" xmlns:xlink="http://www.w3.org/1999/xlink" x="0px" y="0px"
	 width="480px" height="480px" viewBox="0 0 480 480" enable-background="new 0 0 480 480" xml:space="preserve">
<path fill="#127250" d="M381.54,98.56C343.82,60.82,293.66,40.02,240.22,40C130.1,40,40.48,129.58,40.44,239.7
	c-0.02,35.2,9.18,69.56,26.66,99.84L40,440l104.66-24.74c29.18,15.92,62.02,24.3,95.46,24.32h0.08c110.1,0,199.72-89.6,199.78-199.7
	C440.02,186.5,419.26,136.32,381.54,98.56z M337.96,311.08c-4.16,11.66-24.54,22.9-33.7,23.72c-9.16,0.84-17.74,4.141-59.9-12.479
	c-50.739-20-82.779-72.021-85.259-75.34c-2.5-3.34-20.38-27.061-20.38-51.621s12.9-36.64,17.48-41.62c4.58-5,9.98-6.24,13.32-6.24
	c3.32,0,6.66,0,9.56,0.12c3.56,0.14,7.5,0.32,11.24,8.62c4.44,9.88,14.14,34.56,15.38,37.06c1.24,2.5,2.08,5.42,0.42,8.74
	c-1.66,3.32-2.5,5.4-4.98,8.32c-2.5,2.92-5.24,6.5-7.48,8.74c-2.5,2.48-5.1,5.2-2.2,10.18c2.92,5,12.92,21.34,27.76,34.56
	c19.08,17,35.139,22.26,40.139,24.78c5,2.5,7.9,2.08,10.82-1.261c2.92-3.319,12.48-14.56,15.801-19.56c3.319-5,6.66-4.159,11.24-2.5
	c4.579,1.66,29.119,13.74,34.1,16.24c5,2.5,8.32,3.74,9.56,5.819C342.12,289.42,342.12,299.42,337.96,311.08z"/>
</svg>
